<svg height="600" viewBox="0 0 800 600" width="800" xmlns="http://www.w3.org/2000/svg">
<g class="g-chart">
<g class="g-view" transform="translate(60,20)">
<g>
<g transform="translate(255.48386,0)">
<rect fill="#1f77b4" height="53" shape-rendering="crispEdges" width="209.03224" x="0" y="477"/>
</g>
<g transform="translate(23.2258,0)">
<rect fill="#1f77b4" height="371" shape-rendering="crispEdges" width="209.03224" x="0" y="159"/>
<rect fill="#ff7f0e" height="106" shape-rendering="crispEdges" width="209.03224" x="0" y="53"/>
<rect fill="#2ca02c" height="26.5" shape-rendering="crispEdges" width="209.03224" x="0" y="26.5"/>
</g>
<g transform="translate(487.7419,0)">
<rect fill="#1f77b4" height="159" shape-rendering="crispEdges" width="209.03224" x="0" y="371"/>
<rect fill="#2ca02c" height="106" shape-rendering="crispEdges" width="209.03224" x="0" y="265"/>
</g>
</g>
</g>
<g class="x-axis" transform="translate(60,550)">
<line shape-rendering="crispEdges" stroke="#bbbbbb" stroke-width="1" x1="0" x2="720" y1="0" y2="0"/>
<g class="tick" transform="translate(127.74192,0)">
<line shape-rendering="crispEdges" stroke="#bbbbbb" stroke-width="1px" x1="0" x2="0" y1="0" y2="6"/>
<text dy=".35em" fill="#777" font-family="sans-serif" font-size="14px" text-anchor="middle" x="0" y="16">
A
</text>
</g>
<g class="tick" transform="translate(359.99997,0)">
<line shape-rendering="crispEdges" stroke="#bbbbbb" stroke-width="1px" x1="0" x2="0" y1="0" y2="6"/>
<text dy=".35em" fill="#777" font-family="sans-serif" font-size="14px" text-anchor="middle" x="0" y="16">
B
</text>
</g>
<g class="tick" transform="translate(592.25806,0)">
<line shape-rendering="crispEdges" stroke="#bbbbbb" stroke-width="1px" x1="0" x2="0" y1="0" y2="6"/>
<text dy=".35em" fill="#777" font-family="sans-serif" font-size="14px" text-anchor="middle" x="0" y="16">
C
</text>
</g>
</g>
<g class="y-axis" transform="translate(60,20)">
<line shape-rendering="crispEdges" stroke="#bbbbbb" stroke-width="1" x1="0" x2="0" y1="0" y2="530"/>
<g class="tick" transform="translate(0,530)">
<line shape-rendering="crispEdges" stroke="#bbbbbb" stroke-width="1px" x1="0" x2="-6" y1="0" y2="0"/>
<text dy=".35em" fill="#777" font-family="sans-serif" font-size="14px" text-anchor="end" x="-16" y="0">
0
</text>
</g>
<g class="tick" transform="translate(0,477)">
<line shape-rendering="crispEdges" stroke="#bbbbbb" stroke-width="1px" x1="0" x2="-6" y1="0" y2="0"/>
<text dy=".35em" fill="#777" font-family="sans-serif" font-size="14px" text-anchor="end" x="-16" y="0">
10
</text>
</g>
<g class="tick" transform="translate(0,424)">
<line shape-rendering="crispEdges" stroke="#bbbbbb" stroke-width="1px" x1="0" x2="-6" y1="0" y2="0"/>
<text dy=".35em" fill="#777" font-family="sans-serif" font-size="14px" text-anchor="end" x="-16" y="0">
20
</text>
</g>
<g class="tick" transform="translate(0,371)">
<line shape-rendering="crispEdges" stroke="#bbbbbb" stroke-width="1px" x1="0" x2="-6" y1="0" y2="0"/>
<text dy=".35em" fill="#777" font-family="sans-serif" font-size="14px" text-anchor="end" x="-16" y="0">
30
</text>
</g>
<g class="tick" transform="translate(0,318)">
<line shape-rendering="crispEdges" stroke="#bbbbbb" stroke-width="1px" x1="0" x2="-6" y1="0" y2="0"/>
<text dy=".35em" fill="#777" font-family="sans-serif" font-size="14px" text-anchor="end" x="-16" y="0">
40
</text>
</g>
<g class="tick" transform="translate(0,265)">
<line shape-rendering="crispEdges" stroke="#bbbbbb" stroke-width="1px" x1="0" x2="-6" y1="0" y2="0"/>
<text dy=".35em" fill="#777" font-family="sans-serif" font-size="14px" text-anchor="end" x="-16" y="0">
50
</text>
</g>
<g class="tick" transform="translate(0,212)">
<line shape-rendering="crispEdges" stroke="#bbbbbb" stroke-width="1px" x1="0" x2="-6" y1="0" y2="0"/>
<text dy=".35em" fill="#777" font-family="sans-serif" font-size="14px" text-anchor="end" x="-16" y="0">
60
</text>
</g>
<g class="tick" transform="translate(0,159)">
<line shape-rendering="crispEdges" stroke="#bbbbbb" stroke-width="1px" x1="0" x2="-6" y1="0" y2="0"/>
<text dy=".35em" fill="#777" font-family="sans-serif" font-size="14px" text-anchor="end" x="-16" y="0">
70
</text>
</g>
<g class="tick" transform="translate(0,106)">
<line shape-rendering="crispEdges" stroke="#bbbbbb" stroke-width="1px" x1="0" x2="-6" y1="0" y2="0"/>
<text dy=".35em" fill="#777" font-family="sans-serif" font-size="14px" text-anchor="end" x="-16" y="0">
80
</text>
</g>
<g class="tick" transform="translate(0,53)">
<line shape-rendering="crispEdges" stroke="#bbbbbb" stroke-width="1px" x1="0" x2="-6" y1="0" y2="0"/>
<text dy=".35em" fill="#777" font-family="sans-serif" font-size="14px" text-anchor="end" x="-16" y="0">
90
</text>
</g>
<g class="tick" transform="translate(0,0)">
<line shape-rendering="crispEdges" stroke="#bbbbbb" stroke-width="1px" x1="0" x2="-6" y1="0" y2="0"/>
<text dy=".35em" fill="#777" font-family="sans-serif" font-size="14px" text-anchor="end" x="-16" y="0">
100
</text>
</g>
</g>
</g>
</svg>