<svg height="600" viewBox="0 0 800 600" width="800" xmlns="http://www.w3.org/2000/svg">
<g class="g-chart">
<g class="g-title" transform="translate(400,25)">
<text dy=".35em" fill="#777" font-family="sans-serif" font-size="24px" text-anchor="middle" x="0" y="0">
Frequency of English Letters
</text>
</g>
<g class="x-axis" transform="translate(60,550)">
<line shape-rendering="crispEdges" stroke="#bbbbbb" stroke-width="1" x1="0" x2="730" y1="0" y2="0"/>
<g class="tick" transform="translate(15.383142,0)">
<line shape-rendering="crispEdges" stroke="#bbbbbb" stroke-width="1px" x1="0" x2="0" y1="0" y2="6"/>
<text dy=".35em" fill="#777" font-family="sans-serif" font-size="14px" text-anchor="middle" x="0" y="16">
E
</text>
</g>
<g class="tick" transform="translate(43.352493,0)">
<line shape-rendering="crispEdges" stroke="#bbbbbb" stroke-width="1px" x1="0" x2="0" y1="0" y2="6"/>
<text dy=".35em" fill="#777" font-family="sans-serif" font-size="14px" text-anchor="middle" x="0" y="16">
T
</text>
</g>
<g class="tick" transform="translate(71.32184,0)">
<line shape-rendering="crispEdges" stroke="#bbbbbb" stroke-width="1px" x1="0" x2="0" y1="0" y2="6"/>
<text dy=".35em" fill="#777" font-family="sans-serif" font-size="14px" text-anchor="middle" x="0" y="16">
A
</text>
</g>
<g class="tick" transform="translate(99.29119,0)">
<line shape-rendering="crispEdges" stroke="#bbbbbb" stroke-width="1px" x1="0" x2="0" y1="0" y2="6"/>
<text dy=".35em" fill="#777" font-family="sans-serif" font-size="14px" text-anchor="middle" x="0" y="16">
O
</text>
</g>
<g class="tick" transform="translate(127.26054,0)">
<line shape-rendering="crispEdges" stroke="#bbbbbb" stroke-width="1px" x1="0" x2="0" y1="0" y2="6"/>
<text dy=".35em" fill="#777" font-family="sans-serif" font-size="14px" text-anchor="middle" x="0" y="16">
I
</text>
</g>
<g class="tick" transform="translate(155.22989,0)">
<line shape-rendering="crispEdges" stroke="#bbbbbb" stroke-width="1px" x1="0" x2="0" y1="0" y2="6"/>
<text dy=".35em" fill="#777" font-family="sans-serif" font-size="14px" text-anchor="middle" x="0" y="16">
N
</text>
</g>
<g class="tick" transform="translate(183.19925,0)">
<line shape-rendering="crispEdges" stroke="#bbbbbb" stroke-width="1px" x1="0" x2="0" y1="0" y2="6"/>
<text dy=".35em" fill="#777" font-family="sans-serif" font-size="14px" text-anchor="middle" x="0" y="16">
S
</text>
</g>
<g class="tick" transform="translate(211.1686,0)">
<line shape-rendering="crispEdges" stroke="#bbbbbb" stroke-width="1px" x1="0" x2="0" y1="0" y2="6"/>
<text dy=".35em" fill="#777" font-family="sans-serif" font-size="14px" text-anchor="middle" x="0" y="16">
H
</text>
</g>
<g class="tick" transform="translate(239.13794,0)">
<line shape-rendering="crispEdges" stroke="#bbbbbb" stroke-width="1px" x1="0" x2="0" y1="0" y2="6"/>
<text dy=".35em" fill="#777" font-family="sans-serif" font-size="14px" text-anchor="middle" x="0" y="16">
R
</text>
</g>
<g class="tick" transform="translate(267.10727,0)">
<line shape-rendering="crispEdges" stroke="#bbbbbb" stroke-width="1px" x1="0" x2="0" y1="0" y2="6"/>
<text dy=".35em" fill="#777" font-family="sans-serif" font-size="14px" text-anchor="middle" x="0" y="16">
D
</text>
</g>
<g class="tick" transform="translate(295.07663,0)">
<line shape-rendering="crispEdges" stroke="#bbbbbb" stroke-width="1px" x1="0" x2="0" y1="0" y2="6"/>
<text dy=".35em" fill="#777" font-family="sans-serif" font-size="14px" text-anchor="middle" x="0" y="16">
L
</text>
</g>
<g class="tick" transform="translate(323.046,0)">
<line shape-rendering="crispEdges" stroke="#bbbbbb" stroke-width="1px" x1="0" x2="0" y1="0" y2="6"/>
<text dy=".35em" fill="#777" font-family="sans-serif" font-size="14px" text-anchor="middle" x="0" y="16">
C
</text>
</g>
<g class="tick" transform="translate(351.01535,0)">
<line shape-rendering="crispEdges" stroke="#bbbbbb" stroke-width="1px" x1="0" x2="0" y1="0" y2="6"/>
<text dy=".35em" fill="#777" font-family="sans-serif" font-size="14px" text-anchor="middle" x="0" y="16">
U
</text>
</g>
<g class="tick" transform="translate(378.98468,0)">
<line shape-rendering="crispEdges" stroke="#bbbbbb" stroke-width="1px" x1="0" x2="0" y1="0" y2="6"/>
<text dy=".35em" fill="#777" font-family="sans-serif" font-size="14px" text-anchor="middle" x="0" y="16">
M
</text>
</g>
<g class="tick" transform="translate(406.95404,0)">
<line shape-rendering="crispEdges" stroke="#bbbbbb" stroke-width="1px" x1="0" x2="0" y1="0" y2="6"/>
<text dy=".35em" fill="#777" font-family="sans-serif" font-size="14px" text-anchor="middle" x="0" y="16">
W
</text>
</g>
<g class="tick" transform="translate(434.92337,0)">
<line shape-rendering="crispEdges" stroke="#bbbbbb" stroke-width="1px" x1="0" x2="0" y1="0" y2="6"/>
<text dy=".35em" fill="#777" font-family="sans-serif" font-size="14px" text-anchor="middle" x="0" y="16">
F
</text>
</g>
<g class="tick" transform="translate(462.89273,0)">
<line shape-rendering="crispEdges" stroke="#bbbbbb" stroke-width="1px" x1="0" x2="0" y1="0" y2="6"/>
<text dy=".35em" fill="#777" font-family="sans-serif" font-size="14px" text-anchor="middle" x="0" y="16">
G
</text>
</g>
<g class="tick" transform="translate(490.8621,0)">
<line shape-rendering="crispEdges" stroke="#bbbbbb" stroke-width="1px" x1="0" x2="0" y1="0" y2="6"/>
<text dy=".35em" fill="#777" font-family="sans-serif" font-size="14px" text-anchor="middle" x="0" y="16">
Y
</text>
</g>
<g class="tick" transform="translate(518.8314,0)">
<line shape-rendering="crispEdges" stroke="#bbbbbb" stroke-width="1px" x1="0" x2="0" y1="0" y2="6"/>
<text dy=".35em" fill="#777" font-family="sans-serif" font-size="14px" text-anchor="middle" x="0" y="16">
P
</text>
</g>
<g class="tick" transform="translate(546.8007,0)">
<line shape-rendering="crispEdges" stroke="#bbbbbb" stroke-width="1px" x1="0" x2="0" y1="0" y2="6"/>
<text dy=".35em" fill="#777" font-family="sans-serif" font-size="14px" text-anchor="middle" x="0" y="16">
B
</text>
</g>
<g class="tick" transform="translate(574.7701,0)">
<line shape-rendering="crispEdges" stroke="#bbbbbb" stroke-width="1px" x1="0" x2="0" y1="0" y2="6"/>
<text dy=".35em" fill="#777" font-family="sans-serif" font-size="14px" text-anchor="middle" x="0" y="16">
V
</text>
</g>
<g class="tick" transform="translate(602.73944,0)">
<line shape-rendering="crispEdges" stroke="#bbbbbb" stroke-width="1px" x1="0" x2="0" y1="0" y2="6"/>
<text dy=".35em" fill="#777" font-family="sans-serif" font-size="14px" text-anchor="middle" x="0" y="16">
K
</text>
</g>
<g class="tick" transform="translate(630.7088,0)">
<line shape-rendering="crispEdges" stroke="#bbbbbb" stroke-width="1px" x1="0" x2="0" y1="0" y2="6"/>
<text dy=".35em" fill="#777" font-family="sans-serif" font-size="14px" text-anchor="middle" x="0" y="16">
J
</text>
</g>
<g class="tick" transform="translate(658.67816,0)">
<line shape-rendering="crispEdges" stroke="#bbbbbb" stroke-width="1px" x1="0" x2="0" y1="0" y2="6"/>
<text dy=".35em" fill="#777" font-family="sans-serif" font-size="14px" text-anchor="middle" x="0" y="16">
X
</text>
</g>
<g class="tick" transform="translate(686.6475,0)">
<line shape-rendering="crispEdges" stroke="#bbbbbb" stroke-width="1px" x1="0" x2="0" y1="0" y2="6"/>
<text dy=".35em" fill="#777" font-family="sans-serif" font-size="14px" text-anchor="middle" x="0" y="16">
Q
</text>
</g>
<g class="tick" transform="translate(714.6168,0)">
<line shape-rendering="crispEdges" stroke="#bbbbbb" stroke-width="1px" x1="0" x2="0" y1="0" y2="6"/>
<text dy=".35em" fill="#777" font-family="sans-serif" font-size="14px" text-anchor="middle" x="0" y="16">
Z
</text>
</g>
</g>
<g class="y-axis" transform="translate(60,70)">
<line shape-rendering="crispEdges" stroke="#bbbbbb" stroke-width="1" x1="0" x2="0" y1="0" y2="480"/>
<g class="tick" transform="translate(0,480)">
<line shape-rendering="crispEdges" stroke="#bbbbbb" stroke-width="1px" x1="0" x2="-6" y1="0" y2="0"/>
<text dy=".35em" fill="#777" font-family="sans-serif" font-size="14px" text-anchor="end" x="-12" y="0">
0
</text>
</g>
<g class="tick" transform="translate(0,443.07693)">
<line shape-rendering="crispEdges" stroke="#bbbbbb" stroke-width="1px" x1="0" x2="-6" y1="0" y2="0"/>
<text dy=".35em" fill="#777" font-family="sans-serif" font-size="14px" text-anchor="end" x="-12" y="0">
1
</text>
</g>
<g class="tick" transform="translate(0,406.15384)">
<line shape-rendering="crispEdges" stroke="#bbbbbb" stroke-width="1px" x1="0" x2="-6" y1="0" y2="0"/>
<text dy=".35em" fill="#777" font-family="sans-serif" font-size="14px" text-anchor="end" x="-12" y="0">
2
</text>
</g>
<g class="tick" transform="translate(0,369.23077)">
<line shape-rendering="crispEdges" stroke="#bbbbbb" stroke-width="1px" x1="0" x2="-6" y1="0" y2="0"/>
<text dy=".35em" fill="#777" font-family="sans-serif" font-size="14px" text-anchor="end" x="-12" y="0">
3
</text>
</g>
<g class="tick" transform="translate(0,332.30768)">
<line shape-rendering="crispEdges" stroke="#bbbbbb" stroke-width="1px" x1="0" x2="-6" y1="0" y2="0"/>
<text dy=".35em" fill="#777" font-family="sans-serif" font-size="14px" text-anchor="end" x="-12" y="0">
4
</text>
</g>
<g class="tick" transform="translate(0,295.3846)">
<line shape-rendering="crispEdges" stroke="#bbbbbb" stroke-width="1px" x1="0" x2="-6" y1="0" y2="0"/>
<text dy=".35em" fill="#777" font-family="sans-serif" font-size="14px" text-anchor="end" x="-12" y="0">
5
</text>
</g>
<g class="tick" transform="translate(0,258.46155)">
<line shape-rendering="crispEdges" stroke="#bbbbbb" stroke-width="1px" x1="0" x2="-6" y1="0" y2="0"/>
<text dy=".35em" fill="#777" font-family="sans-serif" font-size="14px" text-anchor="end" x="-12" y="0">
6
</text>
</g>
<g class="tick" transform="translate(0,221.53845)">
<line shape-rendering="crispEdges" stroke="#bbbbbb" stroke-width="1px" x1="0" x2="-6" y1="0" y2="0"/>
<text dy=".35em" fill="#777" font-family="sans-serif" font-size="14px" text-anchor="end" x="-12" y="0">
7
</text>
</g>
<g class="tick" transform="translate(0,184.61539)">
<line shape-rendering="crispEdges" stroke="#bbbbbb" stroke-width="1px" x1="0" x2="-6" y1="0" y2="0"/>
<text dy=".35em" fill="#777" font-family="sans-serif" font-size="14px" text-anchor="end" x="-12" y="0">
8
</text>
</g>
<g class="tick" transform="translate(0,147.69229)">
<line shape-rendering="crispEdges" stroke="#bbbbbb" stroke-width="1px" x1="0" x2="-6" y1="0" y2="0"/>
<text dy=".35em" fill="#777" font-family="sans-serif" font-size="14px" text-anchor="end" x="-12" y="0">
9
</text>
</g>
<g class="tick" transform="translate(0,110.769226)">
<line shape-rendering="crispEdges" stroke="#bbbbbb" stroke-width="1px" x1="0" x2="-6" y1="0" y2="0"/>
<text dy=".35em" fill="#777" font-family="sans-serif" font-size="14px" text-anchor="end" x="-12" y="0">
10
</text>
</g>
<g class="tick" transform="translate(0,73.84616)">
<line shape-rendering="crispEdges" stroke="#bbbbbb" stroke-width="1px" x1="0" x2="-6" y1="0" y2="0"/>
<text dy=".35em" fill="#777" font-family="sans-serif" font-size="14px" text-anchor="end" x="-12" y="0">
11
</text>
</g>
<g class="tick" transform="translate(0,36.923065)">
<line shape-rendering="crispEdges" stroke="#bbbbbb" stroke-width="1px" x1="0" x2="-6" y1="0" y2="0"/>
<text dy=".35em" fill="#777" font-family="sans-serif" font-size="14px" text-anchor="end" x="-12" y="0">
12
</text>
</g>
<g class="tick" transform="translate(0,0)">
<line shape-rendering="crispEdges" stroke="#bbbbbb" stroke-width="1px" x1="0" x2="-6" y1="0" y2="0"/>
<text dy=".35em" fill="#777" font-family="sans-serif" font-size="14px" text-anchor="end" x="-12" y="0">
13
</text>
</g>
<text fill="#777" font-family="sans-serif" font-size="14px" text-anchor="middle" transform="rotate(-90)" x="-240" y="-42">
Frequency (%)
</text>
</g>
<g class="g-view" transform="translate(60,70)">
<g>
<g class="bar" transform="translate(506.2452,0)">
<rect fill="#1f77b4" height="71.22461" shape-rendering="crispEdges" width="25.172413" x="0" y="408.7754"/>
<text dy=".35em" fill="#333" font-family="sans-serif" font-size="14px" text-anchor="middle" x="12.586206" y="392.7754">
1.9
</text>
</g>
<g class="bar" transform="translate(534.21454,0)">
<rect fill="#1f77b4" height="55.089233" shape-rendering="crispEdges" width="25.172413" x="0" y="424.91077"/>
<text dy=".35em" fill="#333" font-family="sans-serif" font-size="14px" text-anchor="middle" x="12.586206" y="408.91077">
1.5
</text>
</g>
<g class="bar" transform="translate(58.735634,0)">
<rect fill="#1f77b4" height="301.55075" shape-rendering="crispEdges" width="25.172413" x="0" y="178.44925"/>
<text dy=".35em" fill="#333" font-family="sans-serif" font-size="14px" text-anchor="middle" x="12.586206" y="162.44925">
8.2
</text>
</g>
<g class="bar" transform="translate(562.1839,0)">
<rect fill="#1f77b4" height="36.11078" shape-rendering="crispEdges" width="25.172413" x="0" y="443.88922"/>
<text dy=".35em" fill="#333" font-family="sans-serif" font-size="14px" text-anchor="middle" x="12.586206" y="427.88922">
1.0
</text>
</g>
<g class="bar" transform="translate(226.55173,0)">
<rect fill="#1f77b4" height="221.05847" shape-rendering="crispEdges" width="25.172413" x="0" y="258.94153"/>
<text dy=".35em" fill="#333" font-family="sans-serif" font-size="14px" text-anchor="middle" x="12.586206" y="242.94153">
6.0
</text>
</g>
<g class="bar" transform="translate(198.58238,0)">
<rect fill="#1f77b4" height="225.00925" shape-rendering="crispEdges" width="25.172413" x="0" y="254.99075"/>
<text dy=".35em" fill="#333" font-family="sans-serif" font-size="14px" text-anchor="middle" x="12.586206" y="238.99075">
6.1
</text>
</g>
<g class="bar" transform="translate(394.36783,0)">
<rect fill="#1f77b4" height="87.13846" shape-rendering="crispEdges" width="25.172413" x="0" y="392.86154"/>
<text dy=".35em" fill="#333" font-family="sans-serif" font-size="14px" text-anchor="middle" x="12.586206" y="376.86154">
2.4
</text>
</g>
<g class="bar" transform="translate(422.33716,0)">
<rect fill="#1f77b4" height="84.47998" shape-rendering="crispEdges" width="25.172413" x="0" y="395.52002"/>
<text dy=".35em" fill="#333" font-family="sans-serif" font-size="14px" text-anchor="middle" x="12.586206" y="379.52002">
2.3
</text>
</g>
<g class="bar" transform="translate(2.796936,0)">
<rect fill="#1f77b4" height="468.99692" shape-rendering="crispEdges" width="25.172413" x="0" y="11.003082"/>
<text dy=".35em" fill="#333" font-family="sans-serif" font-size="14px" text-anchor="middle" x="12.586206" y="-4.9969177">
12.7
</text>
</g>
<g class="bar" transform="translate(114.67433,0)">
<rect fill="#1f77b4" height="257.20618" shape-rendering="crispEdges" width="25.172413" x="0" y="222.79382"/>
<text dy=".35em" fill="#333" font-family="sans-serif" font-size="14px" text-anchor="middle" x="12.586206" y="206.79382">
7.0
</text>
</g>
<g class="bar" transform="translate(450.30652,0)">
<rect fill="#1f77b4" height="74.399994" shape-rendering="crispEdges" width="25.172413" x="0" y="405.6"/>
<text dy=".35em" fill="#333" font-family="sans-serif" font-size="14px" text-anchor="middle" x="12.586206" y="389.6">
2.0
</text>
</g>
<g class="bar" transform="translate(86.70499,0)">
<rect fill="#1f77b4" height="277.18155" shape-rendering="crispEdges" width="25.172413" x="0" y="202.81845"/>
<text dy=".35em" fill="#333" font-family="sans-serif" font-size="14px" text-anchor="middle" x="12.586206" y="186.81845">
7.5
</text>
</g>
<g class="bar" transform="translate(170.61304,0)">
<rect fill="#1f77b4" height="233.6123" shape-rendering="crispEdges" width="25.172413" x="0" y="246.3877"/>
<text dy=".35em" fill="#333" font-family="sans-serif" font-size="14px" text-anchor="middle" x="12.586206" y="230.3877">
6.3
</text>
</g>
<g class="bar" transform="translate(254.52107,0)">
<rect fill="#1f77b4" height="157.03387" shape-rendering="crispEdges" width="25.172413" x="0" y="322.96613"/>
<text dy=".35em" fill="#333" font-family="sans-serif" font-size="14px" text-anchor="middle" x="12.586206" y="306.96613">
4.3
</text>
</g>
<g class="bar" transform="translate(282.49042,0)">
<rect fill="#1f77b4" height="148.61539" shape-rendering="crispEdges" width="25.172413" x="0" y="331.3846"/>
<text dy=".35em" fill="#333" font-family="sans-serif" font-size="14px" text-anchor="middle" x="12.586206" y="315.3846">
4.0
</text>
</g>
<g class="bar" transform="translate(310.45978,0)">
<rect fill="#1f77b4" height="102.72" shape-rendering="crispEdges" width="25.172413" x="0" y="377.28"/>
<text dy=".35em" fill="#333" font-family="sans-serif" font-size="14px" text-anchor="middle" x="12.586206" y="361.28">
2.8
</text>
</g>
<g class="bar" transform="translate(366.39847,0)">
<rect fill="#1f77b4" height="88.836914" shape-rendering="crispEdges" width="25.172413" x="0" y="391.1631"/>
<text dy=".35em" fill="#333" font-family="sans-serif" font-size="14px" text-anchor="middle" x="12.586206" y="375.1631">
2.4
</text>
</g>
<g class="bar" transform="translate(478.27588,0)">
<rect fill="#1f77b4" height="72.88617" shape-rendering="crispEdges" width="25.172413" x="0" y="407.11383"/>
<text dy=".35em" fill="#333" font-family="sans-serif" font-size="14px" text-anchor="middle" x="12.586206" y="391.11383">
2.0
</text>
</g>
<g class="bar" transform="translate(338.42914,0)">
<rect fill="#1f77b4" height="101.83386" shape-rendering="crispEdges" width="25.172413" x="0" y="378.16614"/>
<text dy=".35em" fill="#333" font-family="sans-serif" font-size="14px" text-anchor="middle" x="12.586206" y="362.16614">
2.8
</text>
</g>
<g class="bar" transform="translate(142.64368,0)">
<rect fill="#1f77b4" height="249.19385" shape-rendering="crispEdges" width="25.172413" x="0" y="230.80615"/>
<text dy=".35em" fill="#333" font-family="sans-serif" font-size="14px" text-anchor="middle" x="12.586206" y="214.80615">
6.7
</text>
</g>
<g class="bar" transform="translate(30.766285,0)">
<rect fill="#1f77b4" height="334.37537" shape-rendering="crispEdges" width="25.172413" x="0" y="145.62463"/>
<text dy=".35em" fill="#333" font-family="sans-serif" font-size="14px" text-anchor="middle" x="12.586206" y="129.62463">
9.1
</text>
</g>
<g class="bar" transform="translate(618.1226,0)">
<rect fill="#1f77b4" height="5.649231" shape-rendering="crispEdges" width="25.172413" x="0" y="474.35077"/>
<text dy=".35em" fill="#333" font-family="sans-serif" font-size="14px" text-anchor="middle" x="12.586206" y="458.35077">
0.2
</text>
</g>
<g class="bar" transform="translate(646.092,0)">
<rect fill="#1f77b4" height="5.538452" shape-rendering="crispEdges" width="25.172413" x="0" y="474.46155"/>
<text dy=".35em" fill="#333" font-family="sans-serif" font-size="14px" text-anchor="middle" x="12.586206" y="458.46155">
0.2
</text>
</g>
<g class="bar" transform="translate(590.15326,0)">
<rect fill="#1f77b4" height="28.504608" shape-rendering="crispEdges" width="25.172413" x="0" y="451.4954"/>
<text dy=".35em" fill="#333" font-family="sans-serif" font-size="14px" text-anchor="middle" x="12.586206" y="435.4954">
0.8
</text>
</g>
<g class="bar" transform="translate(674.06134,0)">
<rect fill="#1f77b4" height="3.5076904" shape-rendering="crispEdges" width="25.172413" x="0" y="476.4923"/>
<text dy=".35em" fill="#333" font-family="sans-serif" font-size="14px" text-anchor="middle" x="12.586206" y="460.4923">
0.1
</text>
</g>
<g class="bar" transform="translate(702.03064,0)">
<rect fill="#1f77b4" height="2.7322998" shape-rendering="crispEdges" width="25.172413" x="0" y="477.2677"/>
<text dy=".35em" fill="#333" font-family="sans-serif" font-size="14px" text-anchor="middle" x="12.586206" y="461.2677">
0.1
</text>
</g>
</g>
</g>
</g>
</svg>